<svg width="27" height="19" viewBox="0 0 27 19" fill="none" xmlns="http://www.w3.org/2000/svg">
<path d="M2.48291 18.3324C1.11328 18.3324 0 17.2494 0 15.917V2.41525C0 1.08372 1.11328 0 2.48291 0H24.2964C25.6653 0 26.7793 1.08372 26.7793 2.41525V15.917C26.7793 17.2494 25.6653 18.3324 24.2964 18.3324H2.48291ZM1.57837 2.73038V15.6019C1.57837 16.3609 2.21216 16.9771 2.99243 16.9771H23.7869C24.5662 16.9771 25.2007 16.3609 25.2007 15.6019V2.73038C25.2007 1.97235 24.5662 1.35515 23.7869 1.35515H2.99243C2.21216 1.35515 1.57837 1.97235 1.57837 2.73038ZM22.9309 11.8183L21.5684 10.0937L20.2048 11.8183H15.8418V6.51408H20.3418L21.4324 8.10552L22.7959 6.51408H24.2954L22.2515 9.16573L24.2954 11.8183H22.9309ZM16.9353 10.7573H19.5244L20.7522 9.16751L19.6614 7.7081H16.9353V8.63521H19.3887V9.69625H16.9353V10.7573ZM13.2532 11.8183V7.97336L11.7529 11.8183H10.6621L9.16187 7.84038V11.8183H6.84521L6.4375 10.625H4.11914L3.70972 11.8183H2.48218L4.52686 6.51408H6.0271L7.93604 11.5531V6.51408H9.84399L11.2075 10.0937L12.571 6.51408H14.344V11.8183H13.2532ZM4.52686 9.43099H5.89136L5.20898 7.57512L4.52686 9.43099Z" fill="#303030"/>
</svg>
