<svg width="37" height="24" viewBox="0 0 37 24" fill="none" xmlns="http://www.w3.org/2000/svg">
<path d="M33.7772 24H2.51088C1.12428 23.9981 0.000946045 22.9047 0 21.556L1.52588e-05 2.44235C0.00190735 1.09423 1.12495 0.00184044 2.51088 0L33.7772 2.96845e-05C35.1632 0.00184044 36.2862 1.09426 36.2881 2.44235L36.2881 21.556C36.2871 22.9047 35.1639 23.9982 33.7772 24ZM2.51089 1.39832C1.91907 1.39832 1.43929 1.86499 1.43929 2.44066L1.43927 21.556C1.43929 22.1317 1.91905 22.5983 2.51089 22.5983H33.7772C34.3691 22.5983 34.8489 22.1317 34.8489 21.556V2.44235C34.8489 1.86668 34.3691 1.39998 33.7772 1.39998L2.51089 1.39832Z" fill="#303030"/>
<rect x="30.251" y="3.62793" width="2.308" height="16.8315" fill="#303030"/>
<rect x="26.7979" y="3.62793" width="2.308" height="14.5865" fill="#303030"/>
<rect x="9.49414" y="3.62793" width="2.308" height="14.5865" fill="#303030"/>
<rect x="21.0166" y="3.62793" width="2.308" height="14.5865" fill="#303030"/>
<rect x="15.2549" y="3.62793" width="3.37963" height="14.5865" fill="#303030"/>
<rect x="7.22266" y="3.62793" width="1.10805" height="14.5865" fill="#303030"/>
<rect x="12.9834" y="3.62793" width="1.10805" height="14.5865" fill="#303030"/>
<rect x="24.4902" y="3.62793" width="1.10805" height="14.5865" fill="#303030"/>
<rect x="3.71289" y="3.62793" width="2.308" height="16.8315" fill="#303030"/>
</svg>
