<svg width="33" height="13" viewBox="0 0 33 13" fill="none" xmlns="http://www.w3.org/2000/svg">
<path d="M5.05038 2.6678C5.41434 2.54952 5.80344 2.48597 6.20859 2.48597C7.97528 2.48597 9.45029 3.70656 9.78815 5.32897L12.2925 4.83206C11.7179 2.07501 9.21277 0 6.20859 0C5.5202 0 4.85892 0.109128 4.24023 0.310194L5.05038 2.6678Z" fill="#303030"/>
<path d="M2.09547 10.5625L3.78903 8.70011C3.03304 8.04866 2.55606 7.09789 2.55606 6.03863C2.55606 4.97936 3.03239 4.02985 3.78789 3.37919L2.09401 1.5166C0.810139 2.62287 0 4.23896 0 6.03863C0 7.83829 0.810464 9.45612 2.09547 10.5625Z" fill="#303030"/>
<path d="M9.78784 6.75098C9.44867 8.37258 7.9751 9.59083 6.20892 9.59083C5.80362 9.59083 5.41336 9.52727 5.04956 9.40836L4.23828 11.7671C4.85712 11.968 5.51971 12.0768 6.20892 12.0768C9.21017 12.0768 11.7148 10.0053 12.2918 7.25057L9.78784 6.75098Z" fill="#303030"/>
<path d="M14.4829 8.77851C14.4008 8.64919 14.2894 8.44246 14.2222 8.29028C13.8256 7.3947 13.8066 6.46791 14.1415 5.57816C14.5098 4.60249 15.2132 3.85547 16.1221 3.47509C17.2648 2.99678 18.5285 3.09109 19.6237 3.72315C20.3193 4.1114 20.8125 4.71082 21.187 5.55845C21.2347 5.66694 21.2767 5.78286 21.3176 5.88127L14.4829 8.77851ZM16.7651 4.91284C15.9536 5.25204 15.5353 5.99243 15.6213 6.86057L19.0587 5.42157C18.4675 4.74598 17.6984 4.52206 16.7651 4.91284ZM19.4875 8.04379C19.4867 8.04442 19.4862 8.04505 19.4855 8.04568L19.4144 7.99901C19.2093 8.32277 18.8892 8.58502 18.4854 8.75533C17.717 9.08035 17.005 8.99677 16.4937 8.56057L16.4467 8.63012C16.4467 8.63012 16.446 8.6287 16.4452 8.6287L15.5731 9.89771C15.7896 10.0441 16.022 10.168 16.2662 10.267C17.2296 10.6562 18.2151 10.6383 19.1861 10.2275C19.8884 9.93144 20.4395 9.47996 20.8161 8.90782L19.4875 8.04379Z" fill="#303030"/>
<path d="M23.7068 1.60645V8.66159L24.8344 9.10614L24.1936 10.5604L22.9489 10.0563C22.6694 9.93863 22.4792 9.75855 22.3353 9.55527C22.1976 9.34805 22.0947 9.06372 22.0947 8.68083V1.60645H23.7068Z" fill="#303030"/>
<path d="M26.6283 6.86405C26.629 6.26321 26.9016 5.72449 27.3333 5.35834L26.1763 4.10352C25.3916 4.77815 24.8975 5.76392 24.8965 6.8623C24.8951 7.96101 25.3887 8.94787 26.1726 9.62426L27.3282 8.36816C26.8988 8.00043 26.6278 7.46347 26.6283 6.86405Z" fill="#303030"/>
<path d="M28.6838 8.86646C28.4561 8.86584 28.2367 8.82924 28.0321 8.76301L27.4795 10.361C27.8572 10.4843 28.2616 10.5515 28.682 10.5521C30.5139 10.5538 32.0436 9.28958 32.3979 7.60882L30.6997 7.27148C30.5066 8.18286 29.6774 8.86726 28.6838 8.86646Z" fill="#303030"/>
<path d="M28.6887 3.17969C28.2688 3.17922 27.8644 3.2456 27.4873 3.36783L28.035 4.96721C28.2402 4.90128 28.4596 4.86486 28.6871 4.86486C29.6829 4.86581 30.5128 5.55448 30.7013 6.46803L32.3998 6.13292C32.0504 4.44995 30.5221 3.18095 28.6887 3.17969Z" fill="#303030"/>
</svg>
