<svg width="27" height="16" viewBox="0 0 27 16" fill="none" xmlns="http://www.w3.org/2000/svg">
<path d="M13.1029 14.076C11.7256 15.1294 9.98825 15.7577 8.1 15.7577C3.6261 15.7577 0 12.2306 0 7.87887C0 3.52711 3.6261 0 8.1 0C9.98825 0 11.7256 0.628367 13.1029 1.68178C14.4802 0.628827 16.2161 0 18.0999 0C22.5666 0 26.1999 3.53411 26.1999 7.87887C26.1999 12.2236 22.5666 15.7577 18.0999 15.7577C16.2161 15.7577 14.4802 15.1289 13.1029 14.076ZM18.0999 13.8125C21.4641 13.8125 24.2001 11.1504 24.2001 7.87887C24.2001 4.60739 21.4641 1.94521 18.0999 1.94521C16.7644 1.94521 15.5276 2.365 14.5217 3.07602C15.574 4.40544 16.2 6.07113 16.2 7.87887C16.2 9.68662 15.574 11.3523 14.5217 12.6817C15.5276 13.3927 16.7644 13.8125 18.0999 13.8125Z" fill="#303030"/>
</svg>
