<svg width="58" height="11" viewBox="0 0 58 11" fill="none" xmlns="http://www.w3.org/2000/svg">
<path d="M56.6511 0.00131682C56.2844 0.0326123 56.0044 0.342148 56.0098 0.710111V9.47323C56.0042 9.84127 56.2843 10.1509 56.6511 10.1822C56.8393 10.1939 57.024 10.1272 57.1615 9.99805C57.2989 9.86888 57.3769 9.68867 57.3769 9.50006V0.683499C57.3769 0.494863 57.299 0.314615 57.1615 0.185432C57.0241 0.0562503 56.8393 -0.0103808 56.6511 0.00131682Z" fill="black"/>
<path d="M19.4427 0.0732762C19.1014 -0.0976267 18.6861 0.0406038 18.5152 0.382005L14.6961 8.0137C14.6954 8.01497 14.6941 8.01578 14.6927 8.01578C14.6913 8.01578 14.69 8.01497 14.6894 8.0137L10.8702 0.382005C10.6943 0.0502919 10.2858 -0.0803503 9.95007 0.0877599C9.61436 0.25587 9.47425 0.661242 9.63451 1.00078L14.0385 9.80179C14.1557 10.0361 14.3952 10.184 14.6572 10.1838C14.6689 10.1838 14.6808 10.1824 14.6927 10.1818C14.7045 10.1813 14.7164 10.1838 14.7282 10.1838C14.9902 10.184 15.2297 10.0361 15.3469 9.80179L19.7515 1.00078C19.9223 0.659399 19.7841 0.244166 19.4427 0.0732762Z" fill="black"/>
<path d="M41.4402 0.0698283C41.0728 0.101444 40.7922 0.411623 40.7976 0.780375V7.46913L40.7952 7.47277L40.791 7.47143L35.2676 0.268164C35.051 -0.0137669 34.655 -0.0835473 34.3551 0.107393C34.1544 0.239369 34.0352 0.464859 34.0392 0.705027V9.47187C34.0337 9.84056 34.3142 10.1507 34.6816 10.1823C34.8703 10.194 35.0554 10.1272 35.1931 9.99774C35.3309 9.86827 35.409 9.68763 35.409 9.49859V2.71466L35.4115 2.71125L35.4156 2.71237L40.9392 9.91541C41.1592 10.2023 41.5643 10.269 41.8647 10.0677C42.0578 9.93442 42.1715 9.71347 42.1677 9.47888V0.753543C42.1677 0.564604 42.0896 0.383956 41.9519 0.254466C41.814 0.124923 41.6289 0.0581331 41.4402 0.0698283Z" fill="black"/>
<path d="M53.276 8.21882e-05H44.9985C44.6305 -0.00550628 44.3208 0.274551 44.2895 0.641305C44.2779 0.82953 44.3446 1.01419 44.4738 1.15159C44.6029 1.28899 44.7831 1.36693 44.9717 1.36696L48.4368 1.36696C48.4388 1.36702 48.4405 1.36865 48.4405 1.37069L48.4405 9.47331C48.4349 9.84128 48.7149 10.1509 49.0816 10.1823C49.2698 10.1939 49.4544 10.1272 49.5918 9.99808C49.7293 9.86891 49.8071 9.68872 49.8072 9.50014V1.37069L49.8107 1.36696L53.2495 1.36696C53.6175 1.37244 53.927 1.09241 53.9583 0.725742C53.9699 0.537497 53.9032 0.352822 53.7741 0.215417C53.6449 0.078012 53.4646 8.72536e-05 53.276 8.21882e-05Z" fill="black"/>
<path d="M5.78632 0.381671C5.66322 0.135811 5.40608 -0.0136823 5.13152 0.000989584C4.85744 -0.0130612 4.601 0.136325 4.47803 0.381671L0.0732568 9.18301C-0.0976123 9.52438 0.0406101 9.93964 0.381985 10.1105C0.72336 10.2814 1.13862 10.1432 1.30949 9.80178L2.39151 7.6398C2.39211 7.63853 2.39339 7.63772 2.3948 7.63772H7.86956C7.87096 7.63772 7.87225 7.63853 7.87284 7.6398L8.95487 9.80178C9.12574 10.1431 9.54097 10.2813 9.88231 10.1105C10.2237 9.93959 10.3619 9.52435 10.191 9.18301L5.78632 0.381671ZM2.91402 6.59556L5.12889 2.16998C5.12948 2.16869 5.13076 2.16787 5.13218 2.16787C5.13359 2.16787 5.13487 2.16869 5.13546 2.16998L7.35045 6.59556C7.35102 6.59669 7.35097 6.59804 7.35029 6.59912C7.34962 6.60019 7.34843 6.60084 7.34716 6.60082H2.91731C2.91604 6.60084 2.91485 6.60019 2.91417 6.59912C2.9135 6.59804 2.91344 6.59669 2.91402 6.59556Z" fill="black"/>
<path d="M31.9609 9.24781C31.9528 9.22459 31.9432 9.20188 31.9323 9.1798L27.8762 0.984198C27.6679 0.502563 27.234 0.155827 26.7182 0.0588473C26.2025 -0.0381322 25.6722 0.127303 25.3032 0.500352L24.3065 2.39784L21.9148 7.43563C21.5199 8.19677 20.8972 8.70077 20.1553 8.8772L23.8176 1.5032C23.8249 1.4882 23.8317 1.47297 23.8379 1.45753C23.8978 1.32296 24.0313 1.23633 24.1786 1.23653C24.1925 1.23676 24.2063 1.23779 24.22 1.23959L24.8224 0.168187C24.4365 -0.00388411 23.9977 -0.0141979 23.6042 0.139551C23.2106 0.293299 22.895 0.598295 22.728 0.986389L18.6676 9.16315C18.6614 9.17487 18.6556 9.18681 18.6501 9.19918C18.5599 9.39892 18.5735 9.63023 18.6865 9.81799C18.7996 10.0058 18.9977 10.126 19.2164 10.1397C19.3269 10.1489 19.4387 10.1535 19.5492 10.1535C21.0028 10.1535 22.2895 9.34123 22.9905 7.98026C22.9934 7.97445 22.9964 7.96865 22.9991 7.96262L25.2813 3.15515L25.2819 3.15362L25.3022 3.11113L25.9702 1.70767L25.9692 1.70559L26.0698 1.49378C26.074 1.48487 26.078 1.47593 26.0817 1.46695C26.1395 1.32746 26.2757 1.23652 26.4267 1.23652C26.5777 1.23652 26.7138 1.32746 26.7717 1.46695C26.7766 1.47911 26.7826 1.49115 26.788 1.50298L30.4373 8.87687C29.7007 8.6999 29.081 8.19623 28.6867 7.43585L26.285 2.37068L25.6218 3.78521L27.6021 7.96175C27.605 7.96766 27.6079 7.97369 27.6109 7.9796C28.3228 9.36083 29.573 10.1529 31.0422 10.1529C31.1582 10.1529 31.2756 10.1477 31.3911 10.1376C31.4643 10.1314 31.5357 10.1117 31.6017 10.0796C31.923 9.94108 32.0806 9.57657 31.9609 9.24781Z" fill="black"/>
</svg>
