<svg width="36" height="15" viewBox="0 0 36 15" fill="none" xmlns="http://www.w3.org/2000/svg">
<path d="M14.7653 14.7044L0 14.7094V14.6755C0 14.6567 0.0235443 14.5356 0.0523376 14.4062C0.0812378 14.2769 0.125923 14.0711 0.151886 13.9489C0.177734 13.8267 0.222046 13.6193 0.250183 13.4877C0.31955 13.166 0.388107 12.8444 0.455803 12.5225C0.482399 12.3956 0.526772 12.188 0.554543 12.0613C0.589859 11.899 0.624809 11.7367 0.659492 11.5743C0.689514 11.4333 0.735107 11.2181 0.760849 11.0959C0.786537 10.9737 0.827591 10.7855 0.851776 10.6775C0.876022 10.5694 0.906944 10.4233 0.920441 10.3529C0.934029 10.2824 0.977859 10.0748 1.0179 9.89159C1.05161 9.73807 1.08437 9.58435 1.11609 9.43038C1.13007 9.35988 1.17442 9.15234 1.21473 8.9691C1.25497 8.78597 1.29918 8.57833 1.31293 8.50789C1.32668 8.43746 1.37121 8.22976 1.41177 8.04668C1.45234 7.86338 1.49617 7.6596 1.50907 7.59395C1.52208 7.52816 1.55751 7.35903 1.58795 7.21812C1.61824 7.07713 1.67583 6.81187 1.7157 6.62869C1.75568 6.44544 1.82386 6.12644 1.86726 5.91969C1.91082 5.71297 1.96284 5.467 1.98285 5.37303C2.04182 5.09673 2.10123 4.82062 2.16122 4.54453C2.19077 4.40829 2.23888 4.18533 2.26815 4.049C2.29736 3.91281 2.34244 3.70131 2.36829 3.57925C2.39403 3.45707 2.43813 3.25337 2.46611 3.12656C2.49415 2.99964 2.54243 2.7767 2.5733 2.63105C2.60424 2.48545 2.65604 2.2625 2.68842 2.13563C2.72074 2.00878 2.76646 1.85506 2.79011 1.79398C2.81365 1.73287 2.87878 1.6005 2.93476 1.49978L3.03649 1.31664L3.12902 1.20077C3.1798 1.13709 3.27064 1.03652 3.33078 0.977183C3.39094 0.917843 3.49236 0.828612 3.5563 0.778846C3.6201 0.729035 3.71262 0.66183 3.76176 0.629563C3.81088 0.597236 3.90738 0.540643 3.97625 0.50373C4.04502 0.466922 4.14162 0.418729 4.19075 0.396599C4.23988 0.374469 4.34038 0.33398 4.41407 0.3067C4.48771 0.279583 4.62857 0.233943 4.72678 0.205357C4.82503 0.17683 5.00962 0.133773 5.13688 0.109832C5.26403 0.0857287 5.46505 0.0536101 5.58362 0.0384117L5.79908 0.0107161L20.5735 0.00540257L35.3479 0V0.0339293C35.3479 0.0525712 35.3243 0.173654 35.2953 0.303063C35.2588 0.466729 35.223 0.630602 35.1878 0.794519C35.1575 0.935491 35.1135 1.13927 35.0898 1.24725C35.0563 1.40097 35.0231 1.55469 34.9902 1.70852C34.959 1.85422 34.9112 2.07723 34.8839 2.20394C34.8565 2.33085 34.8121 2.53844 34.7853 2.66531C34.7586 2.7921 34.714 2.99964 34.6863 3.12653C34.654 3.27452 34.6222 3.42256 34.5908 3.57071C34.566 3.68814 34.521 3.8995 34.491 4.04047C34.461 4.18138 34.4127 4.40434 34.3837 4.53593C34.3547 4.66742 34.3107 4.87116 34.2857 4.98861C34.2607 5.10599 34.2157 5.31745 34.1858 5.45836C34.1558 5.59932 34.1076 5.82223 34.0787 5.95383C34.0497 6.08542 34.0067 6.28527 33.9828 6.39802C33.9167 6.7113 33.8501 7.02451 33.7832 7.33763C33.7589 7.45034 33.7158 7.65034 33.6873 7.78172C33.6508 7.94975 33.6145 8.11769 33.5787 8.28584C33.5474 8.43153 33.5029 8.63886 33.4796 8.74704C33.4561 8.85505 33.4125 9.05879 33.3825 9.19966C33.3472 9.36488 33.3118 9.5301 33.2761 9.69518C33.2478 9.82668 33.2033 10.0343 33.1771 10.1565C33.1512 10.2786 33.1058 10.49 33.0767 10.6262C33.0474 10.7624 32.9996 10.9853 32.9703 11.1216C32.9412 11.258 32.8976 11.4616 32.8732 11.5744C32.8402 11.7281 32.8074 11.8818 32.7747 12.0356C32.7396 12.2003 32.7034 12.3648 32.6664 12.5292L32.6126 12.7664L32.5486 12.9305C32.5134 13.0209 32.4603 13.1409 32.4308 13.1972C32.4012 13.2536 32.3411 13.3532 32.2971 13.4183C32.2531 13.4835 32.1919 13.567 32.1609 13.6039C32.13 13.6409 32.0369 13.7361 31.9539 13.8156L31.8034 13.9602L31.6583 14.0587C31.5785 14.1129 31.4925 14.1681 31.4673 14.1813C31.442 14.1944 31.3459 14.2413 31.2537 14.2855C31.1615 14.3297 31.0313 14.3858 30.9644 14.4102C30.8974 14.4349 30.7647 14.4766 30.6695 14.503C30.5742 14.5297 30.4722 14.5557 30.4427 14.5611C30.4132 14.5665 30.311 14.5866 30.2153 14.606C30.1197 14.6253 29.9267 14.6543 29.7864 14.6702L29.5313 14.6993L14.7653 14.7044ZM9.51198 11.0532H9.89623L9.90705 11.0262C9.91307 11.0112 9.91796 10.9763 9.91796 10.9486C9.91796 10.9206 9.93064 10.8194 9.94611 10.7235C9.96152 10.6276 9.99787 10.4069 10.0268 10.2331C10.0558 10.0593 10.099 9.79799 10.123 9.65235C10.1458 9.51445 10.1676 9.37628 10.1882 9.23798C10.2 9.15583 10.2143 9.08852 10.2202 9.08852C10.2259 9.08852 10.2508 9.12485 10.2754 9.1693L10.32 9.25005L10.4191 9.34547L10.5183 9.44078L10.6401 9.48748L10.7621 9.53422L10.9073 9.55219L11.0528 9.57024L11.2372 9.55942L11.4216 9.54864L11.6214 9.49919L11.8211 9.44975L11.9283 9.40304C11.9874 9.37733 12.0919 9.32122 12.1606 9.27832L12.2858 9.20049L12.4024 9.08893C12.4666 9.02783 12.5571 8.92944 12.6035 8.87068C12.6499 8.8118 12.6879 8.75936 12.6879 8.75412C12.6879 8.74885 12.7108 8.71248 12.7386 8.67316C12.7665 8.63392 12.8235 8.52481 12.8653 8.4309C12.9072 8.33689 12.9725 8.16781 13.0107 8.05505L13.08 7.85007L13.1157 7.67251C13.1355 7.57479 13.1608 7.41342 13.1721 7.31369L13.1925 7.13254L13.1807 6.9788L13.1688 6.82508L13.1316 6.67125L13.0943 6.51753L13.0339 6.40245L12.9736 6.28724L12.857 6.16913L12.7404 6.05091L12.6025 5.98277L12.4645 5.91452L12.3126 5.87975L12.1606 5.84503L12.0087 5.8344L11.8569 5.82373L11.6877 5.84232L11.5184 5.86081L11.3803 5.89453L11.2423 5.92816L11.1223 5.98136C11.0563 6.01046 10.9602 6.06007 10.9089 6.09152C10.8576 6.12291 10.8045 6.15903 10.7911 6.17183C10.7778 6.18453 10.7457 6.20822 10.7199 6.2243L10.6729 6.25367L10.7057 6.10354C10.7238 6.02103 10.7388 5.94399 10.7392 5.93216L10.74 5.91081H10.0847L10.0273 6.25679C9.99567 6.44715 9.94579 6.74112 9.9164 6.91029C9.85161 7.28339 9.78605 7.65636 9.71973 8.02923C9.69057 8.19362 9.64225 8.4551 9.61238 8.61006C9.58257 8.76514 9.5389 8.9919 9.51529 9.11418C9.49175 9.2363 9.44727 9.46686 9.41672 9.62662C9.3806 9.8145 9.34409 10.0026 9.30722 10.1903C9.27239 10.3671 9.2368 10.5435 9.20035 10.7199C9.17113 10.8609 9.14293 10.9936 9.13747 11.0147L9.12767 11.0531L9.51198 11.0532ZM11.1661 9.07801L11.017 9.0866L10.9195 9.0701L10.8219 9.05374L10.7229 9.01049L10.6237 8.96718L10.5546 8.90405L10.4854 8.84095L10.4455 8.75553C10.4235 8.70851 10.3952 8.62866 10.3828 8.57806L10.36 8.48609L10.3692 8.33887L10.3784 8.19171L10.4243 7.96098C10.4591 7.78475 10.4927 7.60821 10.5254 7.43147C10.5556 7.26704 10.6015 7.02601 10.6272 6.89604L10.6739 6.65959L10.7764 6.57807C10.8328 6.53331 10.922 6.47319 10.9748 6.44467L11.0707 6.39265L11.1957 6.35565L11.3209 6.31859L11.4817 6.30958L11.6426 6.30051L11.7735 6.32727L11.9044 6.35393L11.997 6.39464L12.0894 6.43535L12.1668 6.50983L12.2444 6.58432L12.2861 6.6632C12.3092 6.70655 12.3414 6.79152 12.3579 6.85184L12.3878 6.96163L12.3787 7.2863L12.3695 7.61087L12.3236 7.80274C12.2984 7.90827 12.2504 8.06973 12.2169 8.16152L12.156 8.32845L12.0814 8.46348C12.0403 8.53777 11.9772 8.63824 11.9408 8.68667C11.9046 8.73511 11.8467 8.79789 11.8123 8.82605C11.7707 8.85995 11.728 8.89269 11.6843 8.92419L11.6188 8.97088L11.4672 9.02011L11.3155 9.06943L11.1661 9.07801ZM14.877 9.54756L15.0736 9.54984L15.2702 9.53261C15.3783 9.52325 15.5552 9.50351 15.6633 9.48899C15.7715 9.47452 15.9582 9.44182 16.0784 9.41662L16.2968 9.37061L16.3077 9.29362C16.3137 9.25135 16.3382 9.12533 16.3622 9.01345L16.4059 8.81039L16.3961 8.80117L16.3866 8.79202L16.3198 8.82277C16.283 8.83975 16.1686 8.88025 16.0655 8.91273L15.8781 8.97176L15.6812 9.00825L15.4846 9.04469L15.1718 9.04531L14.8591 9.04579L14.7518 9.01303C14.6928 8.99513 14.6061 8.96224 14.5591 8.93996L14.4736 8.89955L14.403 8.83855L14.3324 8.77754L14.2773 8.68551L14.2223 8.59337L14.1877 8.47806L14.1531 8.36256L14.1529 8.14892L14.1526 7.93528L14.1832 7.74475L14.214 7.55423L14.4828 7.54226L14.7517 7.53023L15.7458 7.53638L16.7398 7.54246L16.7698 7.42071C16.7864 7.35376 16.8116 7.21539 16.8259 7.11321L16.852 6.92743L16.8526 6.7712L16.8532 6.61493L16.8249 6.49816L16.7965 6.38156L16.7497 6.30431C16.7241 6.26183 16.6786 6.20025 16.6489 6.16742C16.6193 6.13466 16.5663 6.08844 16.5311 6.06476C16.496 6.04107 16.4272 6.00125 16.378 5.97625L16.2885 5.93082L16.1325 5.8949L15.9764 5.85903L15.7841 5.84144L15.5916 5.82379L15.4129 5.83488L15.2343 5.84607L15.0198 5.88542L14.8054 5.92484L14.6713 5.976C14.5976 6.00411 14.485 6.05549 14.421 6.09017C14.3573 6.12478 14.2687 6.18115 14.2246 6.2154C14.1803 6.24966 14.1037 6.31629 14.0543 6.36346C14.005 6.41061 13.9318 6.4952 13.8921 6.55164C13.8522 6.60806 13.7911 6.7079 13.7562 6.77374C13.7213 6.83955 13.676 6.93175 13.6553 6.97876C13.6346 7.0257 13.5971 7.12181 13.5719 7.19229C13.5466 7.26278 13.507 7.39734 13.4838 7.49129C13.4565 7.60519 13.4329 7.71977 13.4131 7.83496L13.3847 8.00796L13.385 8.26213L13.3852 8.51628L13.4124 8.62736C13.4272 8.68842 13.4559 8.78071 13.4758 8.8324C13.4957 8.88399 13.5328 8.96098 13.5579 9.00316C13.5831 9.04542 13.6368 9.11362 13.6774 9.15448C13.7179 9.1954 13.7912 9.2575 13.8404 9.29248C13.8896 9.32736 13.977 9.37655 14.0347 9.40179L14.1398 9.44745L14.2863 9.48133C14.3669 9.49981 14.4885 9.52205 14.5566 9.53037C14.6247 9.5387 14.7688 9.54652 14.877 9.54756ZM15.2135 7.14101C14.7188 7.14101 14.314 7.13769 14.314 7.13346C14.314 7.12924 14.3352 7.06974 14.361 7.00108C14.3867 6.93237 14.432 6.83018 14.4616 6.77396L14.5154 6.67163L14.6336 6.55928L14.7518 6.4468L14.8681 6.39375C14.9319 6.36448 15.0164 6.33269 15.0556 6.32306C15.095 6.31338 15.2076 6.30057 15.3058 6.29463L15.4847 6.28359L15.6219 6.30045L15.759 6.31733L15.8587 6.36105L15.9585 6.40467L16.0132 6.46106C16.0432 6.49208 16.079 6.53773 16.0928 6.56251L16.1178 6.6076L16.1343 6.70769L16.1509 6.8078L16.1319 6.97438L16.113 7.14095L15.2135 7.14101ZM20.5598 9.54765L20.7565 9.54984L20.9798 9.52449C21.1026 9.51059 21.266 9.48758 21.3431 9.47332C21.4361 9.4553 21.5286 9.43439 21.62 9.41039C21.6954 9.38998 21.7636 9.36812 21.7715 9.36151C21.7795 9.35495 21.8008 9.27743 21.8189 9.18921C21.8369 9.10102 21.8598 8.98263 21.8694 8.92626C21.8791 8.86988 21.8842 8.82085 21.8805 8.81705C21.877 8.8134 21.8638 8.81815 21.8513 8.82767C21.8388 8.8372 21.7511 8.87243 21.6565 8.906L21.4843 8.96712L21.2393 9.01242L20.9943 9.05787L20.7859 9.05115L20.5775 9.04429L20.4592 9.00502L20.3408 8.96573L20.2494 8.88935L20.1579 8.81284L20.0973 8.70722L20.0367 8.60169L20.0077 8.46037L19.9789 8.31914L19.9791 8.1358L19.9792 7.95251L20.0143 7.73034L20.0494 7.50827L20.0865 7.38858C20.107 7.32284 20.13 7.24606 20.138 7.21783C20.1458 7.18963 20.1785 7.10891 20.2107 7.03847C20.243 6.96802 20.3005 6.85913 20.3385 6.7964L20.4076 6.6825L20.4926 6.59833L20.5777 6.51415L20.6676 6.4609L20.7575 6.4076L20.8731 6.37355C20.9367 6.35486 21.049 6.33055 21.1227 6.31963L21.2568 6.29959L21.4532 6.30906L21.6499 6.31853L21.8822 6.36298L22.1145 6.40739L22.209 6.44102C22.261 6.4596 22.3058 6.47474 22.3086 6.47474C22.3113 6.47474 22.3238 6.41129 22.3363 6.33373C22.3487 6.25627 22.3709 6.12874 22.3855 6.05045C22.4001 5.97199 22.4087 5.90448 22.4043 5.90041C22.3999 5.89625 22.3302 5.88573 22.2492 5.87688C22.1681 5.8681 21.948 5.85242 21.7597 5.842L21.4177 5.82326L21.1764 5.84097L20.9351 5.85867L20.7564 5.89449L20.5777 5.9304L20.4626 5.97444C20.3992 5.99865 20.3065 6.04237 20.2566 6.07147C20.2087 6.09937 20.1615 6.12841 20.1151 6.15866C20.0872 6.17745 20.003 6.2508 19.9276 6.32165L19.7908 6.45045L19.7143 6.55746C19.6724 6.61634 19.5996 6.73893 19.5528 6.83013L19.4677 6.99588L19.4024 7.17521C19.3664 7.27385 19.3163 7.43527 19.291 7.53393L19.245 7.71336L19.2282 7.87567L19.2115 8.03799L19.2116 8.25152L19.2119 8.4651L19.2288 8.58926L19.2456 8.71356L19.2991 8.84141L19.3526 8.96916L19.4145 9.06146L19.4762 9.15391L19.5745 9.24635L19.6729 9.3387L19.7769 9.39137L19.8809 9.4439L20.0176 9.48019C20.0925 9.50008 20.2012 9.52304 20.2587 9.53116C20.3162 9.53907 20.4516 9.54661 20.5598 9.54765ZM23.4994 9.54146L23.7406 9.53485L23.8925 9.49761L24.0444 9.46036L24.1428 9.41601C24.1968 9.39154 24.2852 9.34339 24.3394 9.30881C24.3935 9.27436 24.4771 9.20867 24.5253 9.16307C24.5734 9.11731 24.645 9.03938 24.6842 8.98982C24.7233 8.94026 24.7577 8.90197 24.7606 8.90461C24.7636 8.90741 24.7546 8.98643 24.7406 9.08019C24.7267 9.17406 24.7152 9.29883 24.715 9.35755L24.7146 9.46431H25.3706L25.3807 9.22085L25.3907 8.9774L25.4375 8.66134C25.4632 8.48748 25.5048 8.22997 25.5299 8.08906C25.555 7.94807 25.5984 7.70982 25.6268 7.55944C25.6549 7.40915 25.6996 7.17464 25.726 7.03841L25.774 6.79073L25.7756 6.57672L25.7772 6.36277L25.7267 6.26392L25.676 6.16502L25.6074 6.10208L25.5388 6.03903L25.4262 5.98453L25.3135 5.92984L25.1456 5.89412L24.9776 5.85835L24.7464 5.84165L24.5152 5.82483L24.2175 5.84248C24.0536 5.85216 23.8231 5.87127 23.7052 5.88496L23.4907 5.90979L23.3446 5.91037L23.1985 5.91093L23.1773 6.00926C23.1656 6.0632 23.133 6.19157 23.105 6.29448C23.0769 6.39739 23.0567 6.48396 23.0599 6.48693C23.0629 6.49011 23.1412 6.47299 23.2335 6.44929C23.3259 6.42551 23.5222 6.38646 23.6696 6.36242L23.9375 6.31874L24.1788 6.30931L24.4201 6.29969L24.5755 6.32571L24.7308 6.35183L24.8345 6.40073L24.9383 6.44972L24.9963 6.53242L25.0544 6.6152L25.0536 6.74564L25.0527 6.87615L25.022 7.0193L24.9912 7.16246L24.3482 7.1647L23.7051 7.16688L23.4947 7.22211C23.3789 7.25246 23.2508 7.2927 23.2099 7.31159C23.169 7.33049 23.128 7.34601 23.1189 7.34601C23.1099 7.34601 23.041 7.38239 22.966 7.42715L22.8295 7.50821L22.7221 7.61083C22.6629 7.66714 22.5874 7.75174 22.5542 7.79879C22.5211 7.84575 22.4671 7.94375 22.4344 8.01685L22.3751 8.14944L22.3476 8.29869L22.3202 8.44777V8.76094L22.3463 8.89128L22.3724 9.02148L22.4208 9.1066C22.4474 9.15329 22.4963 9.22183 22.5293 9.2588L22.5896 9.32585L22.6963 9.38789L22.8032 9.45011L22.9256 9.4831C22.9929 9.50127 23.0953 9.52329 23.1532 9.53208L23.2585 9.54792L23.4994 9.54146ZM23.7228 9.0636L23.5798 9.07087L23.4851 9.04782C23.433 9.0351 23.3541 9.0069 23.3096 8.98498L23.2286 8.94526L23.1844 8.89504C23.1601 8.86734 23.1231 8.8132 23.1019 8.77458L23.0636 8.70424L23.0562 8.53991L23.0485 8.37572L23.0789 8.27614C23.0955 8.22133 23.1345 8.12622 23.1658 8.06484L23.2223 7.95313L23.3307 7.85037L23.4389 7.74746L23.554 7.69448L23.669 7.64158L23.812 7.60905L23.9549 7.57657H24.8485L24.8767 7.58776L24.9049 7.59889L24.8811 7.73299C24.8681 7.8067 24.8369 7.94012 24.8118 8.02929C24.7867 8.11862 24.7425 8.24974 24.7135 8.32101C24.6845 8.39202 24.6608 8.4549 24.6608 8.46068C24.6608 8.46645 24.6314 8.51825 24.5954 8.57578L24.5302 8.68061L24.4231 8.78213C24.3642 8.83777 24.3095 8.88347 24.3015 8.88347C24.2935 8.88347 24.2575 8.90275 24.2213 8.92622L24.1554 8.96891L24.0105 9.01273L23.8655 9.05656L23.7228 9.0636ZM29.5396 9.54751L29.7093 9.54953L29.8702 9.52455C29.9587 9.51091 30.0712 9.48878 30.1204 9.47546C30.1695 9.46213 30.2581 9.42772 30.317 9.39883L30.4242 9.3463L30.5165 9.26875L30.6088 9.19106L30.7059 9.06713C30.7593 8.99909 30.8077 8.93184 30.8134 8.91773L30.8237 8.89211L30.8146 8.97754C30.8083 9.0347 30.8001 9.09169 30.79 9.14844C30.7813 9.1954 30.7689 9.28571 30.7625 9.34906L30.7506 9.46441H31.4518V9.23371L31.5051 8.7981C31.5345 8.55843 31.578 8.23948 31.6016 8.08916C31.6253 7.93881 31.662 7.72361 31.6832 7.61087C31.704 7.49812 31.7413 7.29436 31.7658 7.15812C31.7903 7.02196 31.8345 6.78361 31.864 6.62857C31.8936 6.4735 31.941 6.22753 31.9692 6.08183C31.9975 5.93624 32.0414 5.70943 32.0669 5.57793C32.0923 5.44638 32.1379 5.21566 32.1681 5.06538C32.1998 4.90855 32.2325 4.75196 32.2663 4.59552C32.2901 4.4875 32.3096 4.39334 32.3096 4.38631V4.37346H31.5445L31.5333 4.48023C31.5271 4.53905 31.4979 4.73301 31.4682 4.91162C31.4332 5.12244 31.3975 5.33311 31.361 5.54372C31.34 5.66517 31.319 5.78667 31.2984 5.90823L31.2887 5.96517L31.2586 5.95294C31.2419 5.94612 31.152 5.92223 31.0587 5.89983L30.8889 5.85907L30.6567 5.8418L30.4242 5.82452L30.2275 5.842L30.031 5.85955L29.8523 5.90275L29.6736 5.94591L29.5038 6.02508L29.334 6.10427L29.2089 6.19276L29.0839 6.28125L28.9758 6.39203C28.9164 6.45298 28.8306 6.55366 28.785 6.61597L28.7024 6.72899L28.6052 6.92222C28.5518 7.02852 28.4868 7.16937 28.4608 7.23507C28.4348 7.30092 28.3888 7.44663 28.3587 7.55907L28.3041 7.76348L28.2771 8.02908L28.2501 8.29436L28.2704 8.50794L28.2907 8.72153L28.3146 8.79837C28.3277 8.84073 28.3555 8.91611 28.3762 8.96577L28.4138 9.05636L28.4827 9.14536L28.5515 9.23437L28.6301 9.29591L28.7086 9.35739L28.8158 9.40834C28.8749 9.43621 28.9737 9.47249 29.0357 9.48862C29.0976 9.50486 29.198 9.52444 29.2591 9.53199C29.32 9.53922 29.4462 9.54642 29.5396 9.54751ZM29.8443 9.06286L29.7093 9.06957L29.6184 9.05407C29.5683 9.04542 29.4882 9.02225 29.4402 9.00264L29.3532 8.96702L29.2799 8.90961L29.2068 8.85219L29.1523 8.75251L29.098 8.65287L29.0729 8.54183L29.0482 8.4308L29.0503 8.20867L29.0524 7.98662L29.0812 7.79003L29.11 7.5937L29.1547 7.45705C29.1795 7.38187 29.1997 7.31091 29.1998 7.29942C29.2 7.28786 29.2243 7.22649 29.2538 7.16277C29.2885 7.08917 29.3251 7.01638 29.3638 6.9445C29.3945 6.88811 29.4521 6.80026 29.4916 6.74925C29.5313 6.69824 29.6017 6.62134 29.6484 6.57834C29.6949 6.53549 29.769 6.47918 29.8131 6.45331L29.893 6.40629L30.0335 6.35981L30.174 6.31317L30.4689 6.31305H30.7639L30.9336 6.3581C31.0269 6.38293 31.1262 6.41156 31.1539 6.42196L31.2045 6.44075L31.1946 6.48761C31.1892 6.51336 31.1678 6.62674 31.1473 6.73945C31.1269 6.85226 31.0863 7.06756 31.0574 7.21783C31.0284 7.36814 30.9841 7.59499 30.9586 7.7218C30.9333 7.84872 30.8966 8.01014 30.877 8.08057C30.8569 8.15298 30.8364 8.22522 30.8157 8.29753C30.8014 8.34632 30.7677 8.4309 30.7408 8.4854C30.7137 8.53985 30.6663 8.61909 30.6356 8.6614C30.6047 8.70367 30.5527 8.76233 30.5197 8.79154C30.4869 8.82091 30.4158 8.87296 30.3617 8.90727L30.2634 8.96978L30.1213 9.01284L29.9793 9.05594L29.8443 9.06286ZM3.54346 9.46441H3.97758L4.00878 9.28082C4.02586 9.17972 4.05936 8.98565 4.08311 8.84948L4.18137 8.28572C4.21167 8.11184 4.25716 7.85428 4.28237 7.71336C4.30753 7.57244 4.34764 7.35382 4.3713 7.22757C4.39511 7.10119 4.41904 6.99364 4.42455 6.98833L4.43462 6.97876H6.76961L6.78261 6.99115L6.79561 7.00353L6.77535 7.10212C6.76426 7.15642 6.7313 7.32382 6.70224 7.4741C6.67307 7.62445 6.62415 7.87818 6.59333 8.03793C6.56099 8.20603 6.52814 8.37406 6.49469 8.54189C6.47115 8.65937 6.4234 8.90523 6.38868 9.08852C6.35399 9.27178 6.32564 9.43127 6.32575 9.44307L6.32596 9.46441H7.1979L7.21717 9.35765C7.22783 9.29894 7.24491 9.19325 7.25518 9.12276C7.26534 9.05229 7.29012 8.90237 7.31008 8.78966C7.33004 8.67687 7.36986 8.45387 7.39865 8.29415C7.42739 8.1344 7.47565 7.86151 7.50573 7.68771C7.53582 7.51385 7.58043 7.26016 7.60501 7.12399C7.63599 6.95287 7.66832 6.7821 7.70188 6.61145C7.73067 6.46569 7.77868 6.21983 7.80858 6.06471C7.8385 5.90974 7.88318 5.67522 7.90792 5.54368C7.9328 5.41219 7.97803 5.17387 8.00852 5.01412C8.03897 4.85436 8.07756 4.66794 8.09404 4.5998L8.12418 4.47585H7.24132L7.22933 4.55711C7.22274 4.60162 7.20145 4.72677 7.18196 4.83468C7.16243 4.94285 7.12705 5.13494 7.10324 5.26179C7.07943 5.38871 7.03597 5.63075 7.00653 5.8C6.97774 5.9657 6.95002 6.1315 6.92336 6.2975L6.89356 6.48745L6.24558 6.5L5.59754 6.51253L5.05483 6.50026C4.75631 6.49344 4.51041 6.48653 4.50837 6.48501C4.50628 6.48329 4.51645 6.41692 4.53084 6.33738C4.5499 6.23488 4.57012 6.13259 4.59163 6.03056C4.61904 5.89964 4.64563 5.76871 4.6715 5.63754C4.69649 5.51073 4.72474 5.35316 4.73442 5.28737C4.74395 5.2216 4.76412 5.11209 4.77906 5.04383C4.79404 4.97575 4.8225 4.83229 4.8423 4.7251C4.86205 4.61782 4.88315 4.51786 4.88915 4.50294L4.89995 4.47581H4.0242L3.99627 4.62536C3.9808 4.70761 3.9602 4.82485 3.95051 4.88585C3.94082 4.94696 3.90817 5.14297 3.87799 5.3215C3.84791 5.50005 3.80328 5.76529 3.77904 5.91087L3.68099 6.50026C3.64648 6.70547 3.61015 6.91056 3.57192 7.11524C3.54014 7.28333 3.50776 7.45132 3.47469 7.61924C3.45141 7.7366 3.40714 7.95963 3.37626 8.11466C3.34383 8.27714 3.31045 8.43944 3.27604 8.60159C3.25179 8.71424 3.22503 8.84496 3.21664 8.89196C3.20807 8.93897 3.1804 9.07442 3.15509 9.19311C3.12977 9.31164 3.10906 9.42118 3.10906 9.43658V9.46428L3.54346 9.46441ZM8.35018 9.46441H8.73455L8.7454 9.4373C8.75139 9.42241 8.75628 9.38346 8.75628 9.35078C8.75628 9.31799 8.78046 9.14761 8.80996 8.97202C8.87737 8.57213 8.94648 8.17255 9.01732 7.77313C9.04761 7.60488 9.07961 7.43689 9.1131 7.26913C9.14159 7.12822 9.18531 6.9091 9.21025 6.78224C9.23508 6.65539 9.28415 6.4141 9.31916 6.24595C9.35411 6.07782 9.38712 5.93352 9.39248 5.9253L9.40221 5.91031L9.01346 5.91483L8.62477 5.91947L8.59235 6.1417C8.57457 6.26381 8.53562 6.50599 8.50586 6.67973C8.47611 6.85361 8.4311 7.1189 8.40574 7.26913C8.37517 7.44887 8.34253 7.62821 8.30779 7.80726C8.27921 7.95293 8.23543 8.17583 8.21045 8.30274C8.18552 8.4297 8.14072 8.65254 8.11097 8.79815C8.08115 8.94387 8.04122 9.136 8.02217 9.22523C8.00307 9.31466 7.98258 9.40491 7.97663 9.42594L7.96581 9.46441H8.35018ZM17.3405 9.46441H17.722L17.7334 9.31007C17.7398 9.22517 17.7613 9.05422 17.7814 8.92991C17.8015 8.80576 17.8427 8.55807 17.8729 8.37961C17.9111 8.15897 17.9525 7.93877 17.9975 7.7192C18.0359 7.53455 18.0792 7.35094 18.0939 7.31134C18.1085 7.27162 18.1205 7.22867 18.1205 7.21582C18.1205 7.2029 18.1492 7.13273 18.1843 7.05991C18.2193 6.98707 18.2847 6.87553 18.3295 6.81196L18.4109 6.6965L18.5199 6.59998L18.6289 6.50349L18.7634 6.44211L18.8979 6.38073L19.1034 6.38177L19.309 6.38287L19.41 6.41165C19.4655 6.42759 19.5158 6.44059 19.5217 6.44059C19.5274 6.44059 19.5323 6.42238 19.5323 6.40021C19.5323 6.37808 19.5524 6.26553 19.577 6.15013C19.6016 6.03483 19.6216 5.9356 19.6216 5.92972C19.6216 5.92374 19.5633 5.90186 19.492 5.88114C19.4208 5.86048 19.3223 5.83883 19.2732 5.83299L19.1837 5.82243L19.0677 5.84206C19.0038 5.85284 18.9088 5.87668 18.8567 5.89509C18.8044 5.91337 18.7181 5.95503 18.6649 5.98744C18.6118 6.02008 18.5291 6.08344 18.4812 6.12825C18.4333 6.17319 18.3527 6.26381 18.3021 6.32956C18.2627 6.38067 18.2235 6.43191 18.1846 6.48328L18.159 6.51743L18.1745 6.44914C18.183 6.41144 18.2068 6.28843 18.2273 6.17579C18.2478 6.06304 18.269 5.95725 18.2742 5.94085L18.2838 5.91093H17.6023V5.9521C17.6023 5.9748 17.5821 6.11118 17.5576 6.25527C17.533 6.39952 17.4925 6.64038 17.4675 6.79078C17.4425 6.94107 17.3982 7.20253 17.3691 7.37161C17.338 7.55121 17.3051 7.73059 17.2706 7.90966C17.2033 8.25163 17.1345 8.59331 17.0642 8.93469C17.0341 9.08041 16.9981 9.25241 16.9843 9.317C16.9702 9.38144 16.9589 9.44093 16.9589 9.44932V9.46431L17.3405 9.46441ZM26.3977 9.46441H26.7878V9.23611L26.8328 8.95302C26.8576 8.79748 26.8984 8.5508 26.9235 8.40524C26.9486 8.25958 26.9799 8.07509 26.993 7.99514C27.0062 7.91529 27.041 7.74242 27.0705 7.61083C27.1 7.47927 27.1367 7.337 27.1523 7.29473C27.1677 7.25252 27.1806 7.20811 27.1807 7.19619C27.1809 7.18426 27.2141 7.1075 27.2545 7.02566L27.3282 6.87672L27.4254 6.75335L27.5225 6.62998L27.6287 6.55356C27.6873 6.51145 27.7812 6.45575 27.8377 6.42962L27.9404 6.38208L28.1638 6.38355L28.3871 6.38505L28.4751 6.41208L28.5631 6.43909L28.5778 6.43023L28.5926 6.42149L28.5935 6.36699C28.5938 6.33696 28.6129 6.22545 28.6359 6.11903L28.6776 5.92561L28.6308 5.90807C28.5856 5.89202 28.5402 5.87725 28.4943 5.86361L28.4051 5.83665L28.2442 5.83712L28.0834 5.83748L27.9523 5.88163L27.8212 5.92566L27.7229 5.98246L27.6243 6.03924L27.4964 6.16736L27.3684 6.29546L27.2996 6.39489C27.2619 6.4495 27.2286 6.49177 27.2257 6.48875C27.2227 6.48583 27.2434 6.37193 27.2714 6.23571C27.2994 6.09943 27.3227 5.97064 27.3231 5.94951L27.3239 5.9111H26.6627V5.92197C26.6627 5.92794 26.6462 6.03758 26.626 6.16548C26.6059 6.29339 26.5654 6.54024 26.5362 6.7141C26.501 6.92201 26.4654 7.12982 26.4294 7.33763C26.3979 7.51732 26.3651 7.69664 26.3307 7.87583C26.3058 8.00263 26.2618 8.22555 26.2327 8.37125C26.2037 8.5169 26.1559 8.75141 26.1267 8.89232L26.0404 9.30658L26.0075 9.46456L26.3977 9.46441ZM9.10636 5.29563L9.21474 5.29599L9.30101 5.26794L9.38729 5.23983L9.46364 5.16576L9.53997 5.09183L9.5801 4.99313L9.62035 4.89449L9.62174 4.7493L9.62323 4.60418L9.5875 4.54738L9.55179 4.49063L9.4896 4.45393L9.42727 4.41703H9.1586L9.06714 4.45619L8.97574 4.49532L8.92264 4.54972L8.86956 4.60418L8.82781 4.69813L8.78612 4.79204L8.77826 4.93842L8.77044 5.08475L8.80919 5.15753L8.84798 5.23019L8.92296 5.26273L8.99778 5.29516L9.10636 5.29563Z" fill="#303030"/>
</svg>
