<svg width="19" height="20" viewBox="0 0 19 20" fill="none" xmlns="http://www.w3.org/2000/svg">
<path d="M5.59087 19.0095C4.11694 19.055 2.68482 18.5158 1.60687 17.5095C1.0723 16.9741 0.65366 16.3345 0.377018 15.6303C0.100377 14.9261 -0.0283432 14.1726 -0.00112679 13.4165V5.5645C-0.0460495 4.82347 0.0667904 4.08134 0.329937 3.38716C0.593084 2.69297 1.00055 2.06252 1.5254 1.53748C2.05026 1.01244 2.68055 0.604746 3.37465 0.341349C4.06874 0.0779527 4.81083 -0.0351545 5.55187 0.00950141H13.4449C14.1867 -0.0161158 14.926 0.110007 15.6175 0.380144C16.3089 0.65028 16.9379 1.05874 17.4659 1.5805C17.9744 2.1086 18.3721 2.73319 18.6354 3.41743C18.8987 4.10168 19.0223 4.83172 18.9989 5.5645V13.4555C19.0276 14.2026 18.9031 14.9477 18.6331 15.6448C18.3631 16.342 17.9533 16.9766 17.4289 17.5095C16.3375 18.5188 14.8926 19.0577 13.4069 19.0095H5.59087ZM2.79887 2.7685C2.44703 3.14166 2.1741 3.58197 1.99643 4.06309C1.81876 4.54421 1.74 5.05623 1.76487 5.5685V13.4215C1.73785 13.9382 1.81552 14.4551 1.9932 14.941C2.17088 15.427 2.44492 15.8721 2.79887 16.2495C3.5664 16.9347 4.57094 17.2935 5.59887 17.2495H13.4149C14.4428 17.2933 15.4473 16.9346 16.2149 16.2495C16.5833 15.8858 16.8723 15.4496 17.0635 14.9685C17.2548 14.4874 17.3441 13.9719 17.3259 13.4545V5.5645C17.3452 4.54552 16.9701 3.55848 16.2789 2.8095C15.9058 2.45751 15.4655 2.18449 14.9844 2.00681C14.5032 1.82913 13.9912 1.75046 13.4789 1.7755H5.59087C4.5656 1.72484 3.56191 2.08181 2.79887 2.7685ZM4.59887 9.4685C4.59887 8.49937 4.88625 7.55201 5.42467 6.74621C5.96309 5.94041 6.72837 5.31236 7.62372 4.94149C8.51908 4.57062 9.50431 4.47359 10.4548 4.66265C11.4053 4.85172 12.2784 5.3184 12.9637 6.00368C13.649 6.68896 14.1157 7.56205 14.3047 8.51256C14.4938 9.46307 14.3968 10.4483 14.0259 11.3436C13.655 12.239 13.027 13.0043 12.2212 13.5427C11.4154 14.0811 10.468 14.3685 9.49887 14.3685C8.20072 14.3656 6.95653 13.8488 6.03832 12.9312C5.1201 12.0135 4.60257 10.7696 4.59887 9.4715V9.4685ZM6.36187 9.4685C6.36148 10.09 6.54546 10.6976 6.89053 11.2145C7.23561 11.7314 7.72626 12.1343 8.3004 12.3722C8.87454 12.6101 9.50636 12.6724 10.1159 12.5511C10.7254 12.4298 11.2853 12.1304 11.7246 11.6908C12.1639 11.2512 12.463 10.6912 12.5839 10.0816C12.7048 9.47195 12.6421 8.84017 12.4038 8.26618C12.1655 7.69219 11.7623 7.20179 11.2452 6.85705C10.7281 6.5123 10.1204 6.32871 9.49887 6.3295C8.66671 6.33293 7.86962 6.66509 7.28128 7.25361C6.69294 7.84214 6.36103 8.63934 6.35787 9.4715L6.36187 9.4685ZM13.4869 4.4485C13.4879 4.22902 13.5538 4.01476 13.6765 3.83274C13.7991 3.65071 13.9729 3.50909 14.1759 3.42574C14.379 3.34239 14.6021 3.32104 14.8173 3.36439C15.0325 3.40774 15.23 3.51384 15.3849 3.66932C15.5398 3.82479 15.6452 4.02267 15.6878 4.23798C15.7303 4.45329 15.7082 4.67638 15.6241 4.87912C15.54 5.08185 15.3978 5.25514 15.2153 5.37712C15.0329 5.4991 14.8184 5.5643 14.5989 5.5645C14.4524 5.56503 14.3073 5.53662 14.1719 5.48091C14.0364 5.4252 13.9133 5.34329 13.8096 5.23987C13.7059 5.13645 13.6237 5.01357 13.5676 4.87828C13.5115 4.74299 13.4827 4.59795 13.4829 4.4515L13.4869 4.4485Z" fill="#005CFF"/>
</svg>
