<svg width="45" height="45" viewBox="0 0 45 45" fill="none" xmlns="http://www.w3.org/2000/svg">
<path d="M40.5 18.6818C40.5 32.0455 23.25 43.5 23.25 43.5C23.25 43.5 6 32.0455 6 18.6818C6 14.1249 7.81741 9.75465 11.0524 6.53244C14.2874 3.31022 18.675 1.5 23.25 1.5C27.825 1.5 32.2126 3.31022 35.4476 6.53244C38.6826 9.75465 40.5 14.1249 40.5 18.6818Z" stroke="white" stroke-width="1.81818" stroke-linecap="round" stroke-linejoin="round"/>
<path d="M22.5 25.5C25.8137 25.5 28.5 22.8137 28.5 19.5C28.5 16.1863 25.8137 13.5 22.5 13.5C19.1863 13.5 16.5 16.1863 16.5 19.5C16.5 22.8137 19.1863 25.5 22.5 25.5Z" stroke="white" stroke-width="1.81818" stroke-linecap="round" stroke-linejoin="round"/>
</svg>
