<svg width="19" height="21" viewBox="0 0 19 21" fill="none" xmlns="http://www.w3.org/2000/svg">
<path d="M15.9314 4.49C15.7898 4.41661 15.6519 4.33617 15.5184 4.249C15.1296 3.99262 14.773 3.69046 14.4564 3.349C13.8342 2.65384 13.4186 1.79871 13.2564 0.880001C13.1977 0.590555 13.1816 0.294108 13.2084 0H9.61037V13.945C9.61037 14.132 9.61037 14.317 9.60237 14.5C9.60237 14.523 9.60237 14.544 9.60237 14.568C9.60344 14.5783 9.60344 14.5887 9.60237 14.599V14.607C9.56442 15.1075 9.40403 15.5909 9.13531 16.0149C8.86659 16.4388 8.49779 16.7901 8.06137 17.038C7.60672 17.2968 7.09249 17.4325 6.56937 17.432C5.75714 17.432 4.97818 17.1093 4.40385 16.535C3.82952 15.9607 3.50687 15.1817 3.50687 14.3695C3.50687 13.5573 3.82952 12.7783 4.40385 12.204C4.97818 11.6297 5.75714 11.307 6.56937 11.307C6.88755 11.3066 7.2038 11.3565 7.50637 11.455V7.783C6.58831 7.66445 5.65565 7.73741 4.7672 7.9973C3.87876 8.2572 3.0538 8.69837 2.34437 9.293C1.72324 9.83184 1.20076 10.4748 0.800369 11.193C0.294461 12.1238 0.0200655 13.1628 0.000369425 14.222C-0.00790806 15.0362 0.122972 15.8459 0.387367 16.616V16.625C0.625519 17.2646 0.955294 17.8662 1.36637 18.411C1.81183 18.9764 2.33814 19.473 2.92837 19.885V19.876L2.93737 19.885C4.0309 20.6059 5.31061 20.993 6.62037 20.999C7.56372 20.9991 8.49585 20.7943 9.35237 20.399C10.198 20.0001 10.9532 19.4325 11.5714 18.731C12.0855 18.1348 12.4944 17.4555 12.7804 16.722C13.0444 15.9827 13.1912 15.2067 13.2154 14.422V7.022C13.2594 7.048 13.8414 7.434 13.8414 7.434C14.5127 7.82923 15.236 8.12847 15.9904 8.323C16.7152 8.48906 17.4535 8.58947 18.1964 8.623V5.043C17.4068 5.05283 16.6276 4.86258 15.9314 4.49Z" fill="#005CFF"/>
</svg>
