<svg width="30" height="19" viewBox="0 0 30 19" fill="none" xmlns="http://www.w3.org/2000/svg">
<path d="M9.34033 18.1713C4.19043 18.1713 0 14.096 0 9.08558C0 4.07615 4.19043 0 9.34033 0H20.6062C25.7563 0 29.9468 4.07615 29.9468 9.08558C29.9468 14.096 25.7563 18.1713 20.6062 18.1713H9.34033ZM0.537842 9.08807C0.537842 13.8089 4.48657 17.6495 9.34033 17.6495C14.1936 17.6495 18.1421 13.8089 18.1421 9.08807C18.1421 4.36741 14.1936 0.52589 9.34033 0.52589C4.48657 0.52589 0.537842 4.36741 0.537842 9.08807ZM11.4065 3.89828C13.5486 4.70546 15.0679 6.72199 15.0679 9.08807C15.0679 11.4544 13.5466 13.4726 11.4065 14.278V3.89828ZM3.61499 9.08807V9.08558C3.61499 6.71937 5.13403 4.70119 7.27515 3.89579V14.278C5.13672 13.4726 3.61499 11.4562 3.61499 9.08807Z" fill="#303030"/>
</svg>
