<svg width="33" height="9" viewBox="0 0 33 9" fill="none" xmlns="http://www.w3.org/2000/svg">
<path d="M13.7352 8.4726H12.5424C12.3897 8.4726 12.3057 8.33681 12.4143 8.1875L13.7067 6.40149L12.3889 2.64846C12.3195 2.45312 12.4085 2.29431 12.6274 2.29431H13.6887C13.892 2.29431 14.003 2.37371 14.0471 2.51823L14.8023 4.90616L16.4923 2.52381C16.6033 2.36736 16.6808 2.29266 16.8744 2.29266H18.0034C18.2083 2.29266 18.2671 2.47535 18.1422 2.64923L14.0896 8.30342C14.0229 8.41067 13.9039 8.47495 13.7771 8.47494C13.7632 8.47494 13.7492 8.47418 13.7352 8.4726ZM23.9298 4.89824C24.0466 3.37031 25.1348 2.1783 26.7489 2.14578C27.4437 2.12985 27.9417 2.33161 28.1368 2.7811C28.1923 2.90811 28.2519 2.88588 28.2739 2.75966L28.3164 2.51743C28.3433 2.36335 28.3939 2.30696 28.4977 2.30696H29.6472C29.8015 2.30696 29.8513 2.40388 29.8187 2.60164L29.1737 6.53886C29.1304 6.80417 29.0447 6.87321 28.8683 6.87321H27.8217C27.6812 6.87321 27.6216 6.79537 27.6412 6.64849L27.6796 6.36733C27.6951 6.24983 27.5858 6.29908 27.478 6.39435L27.4829 6.39671C27.0633 6.77 26.6909 7.00822 25.8581 7.00822C24.7103 7.00822 23.84 6.07987 23.9298 4.89824ZM25.5235 4.58854C25.423 5.24923 25.9072 5.78841 26.602 5.78841C27.2967 5.78841 27.9466 5.24923 28.047 4.58854C28.1474 3.92779 27.6633 3.38861 26.9685 3.38861C26.2737 3.38861 25.6239 3.92779 25.5235 4.58854ZM5.74986 4.89824C5.86659 3.37031 6.9549 2.1783 8.56888 2.14578C9.26371 2.12985 9.76172 2.33161 9.95679 2.7811C10.0124 2.90811 10.0719 2.88588 10.094 2.75966L10.1365 2.51743C10.1634 2.36335 10.214 2.30696 10.3177 2.30696H11.4688C11.6231 2.30696 11.673 2.40388 11.6403 2.60164L10.9953 6.53886C10.9521 6.80417 10.8663 6.87321 10.69 6.87321H9.64333C9.50294 6.87321 9.44335 6.79537 9.46288 6.64849L9.50126 6.36733C9.51677 6.24983 9.40736 6.29908 9.29963 6.39435L9.30286 6.39671C8.88322 6.77 8.5109 7.00822 7.67818 7.00822C6.53034 7.00822 5.66008 6.07987 5.74986 4.89824ZM7.34431 4.58854C7.24388 5.24923 7.72801 5.78841 8.42274 5.78841C9.11836 5.78841 9.76746 5.24923 9.86782 4.58854C9.96826 3.92779 9.48413 3.38861 8.78932 3.38861C8.09459 3.38861 7.44467 3.92779 7.34431 4.58854ZM31.4294 6.87957H30.2211C30.1786 6.88142 30.1374 6.8647 30.1088 6.83397C30.0802 6.80323 30.0673 6.76178 30.0733 6.72076L31.1347 0.180314C31.1556 0.0884125 31.2388 0.0225887 31.3355 0.0215096H32.5438C32.5863 0.0196392 32.6276 0.036293 32.6561 0.0670228C32.6847 0.0977765 32.6977 0.139285 32.6916 0.180314L31.6303 6.72076C31.61 6.81332 31.5267 6.87985 31.4294 6.88114L31.4294 6.87957ZM18.4027 6.85891C18.2149 6.85891 18.1495 6.74219 18.1912 6.4809L19.1651 0.40981C19.2134 0.111217 19.3285 0 19.5383 0H22.3582V0.00163061C23.4253 0.00163061 24.4098 0.564622 24.2751 1.96789C24.1119 3.63554 23.1934 4.55832 21.7443 4.56232H20.4788C20.2968 4.56232 20.2085 4.70682 20.1612 5.00308L19.9163 6.51742C19.8796 6.74614 19.7587 6.85891 19.5807 6.85891H18.4027ZM21.652 1.32543L20.749 1.32938L20.4396 3.25117H21.3989C21.999 3.22894 22.3974 2.82476 22.4374 2.09576C22.4618 1.64713 22.1515 1.32543 21.6574 1.32542C21.6556 1.32542 21.6538 1.32542 21.652 1.32543ZM0.22355 6.85891C0.035722 6.85891 -0.0296072 6.74219 0.0120556 6.4809L0.984376 0.411393C1.0326 0.112788 1.14767 0.00163061 1.35752 0.00163061H4.17745H4.17984C5.2469 0.00163061 6.2315 0.564622 6.09682 1.96789C5.93355 3.63554 5.01509 4.55832 3.56594 4.56232H2.29964C2.11756 4.56232 2.02937 4.70682 1.98206 5.00308L1.73717 6.51742C1.70043 6.74614 1.57956 6.85891 1.4016 6.85891H0.22355ZM3.47367 1.32543L2.57069 1.32938L2.26128 3.25117H3.22061C3.82063 3.22894 4.21909 2.82476 4.25907 2.09576C4.28343 1.64713 3.97313 1.32543 3.47909 1.32542C3.47727 1.32542 3.47549 1.32542 3.47367 1.32543Z" fill="#303030"/>
</svg>
