<svg width="24" height="23" viewBox="0 0 24 23" fill="none" xmlns="http://www.w3.org/2000/svg">
<path d="M9.19739 21.7742L4.74695 17.4453H5.43958C6.35852 17.4453 7.22327 17.097 7.87317 16.4653L11.3998 13.0347C11.6464 12.7949 12.0765 12.7941 12.3231 13.0347L15.837 16.4526C16.4869 17.0847 17.3514 17.4328 18.2706 17.4328H18.694L14.2306 21.7742C13.5358 22.4501 12.6249 22.788 11.714 22.788C10.8031 22.788 9.89221 22.4501 9.19739 21.7742ZM1.0426 13.8421C-0.347534 12.4899 -0.347534 10.2979 1.0426 8.94615L3.75037 6.31224C3.80725 6.33306 3.86731 6.34787 3.93152 6.34787H5.43958C6.07336 6.34787 6.69397 6.59786 7.14197 7.0339L10.6691 10.4646C10.9979 10.7841 11.4296 10.9443 11.8615 10.9443C12.2933 10.9443 12.7252 10.7841 13.0541 10.4643L16.5682 7.04624C17.016 6.61036 17.6366 6.36022 18.2706 6.36022H19.4967C19.5646 6.36022 19.629 6.34571 19.6884 6.32258L22.3854 8.94615C23.7755 10.2979 23.7755 12.4899 22.3854 13.8421L19.6886 16.4654C19.629 16.4422 19.5646 16.4278 19.4967 16.4278H18.2706C17.6366 16.4278 17.016 16.1778 16.5682 15.7416L13.0541 12.3241C12.4171 11.7039 11.3063 11.7042 10.6688 12.3237L7.14197 15.7543C6.69397 16.1902 6.07336 16.4403 5.43958 16.4403H3.93152C3.86731 16.4403 3.80701 16.4551 3.75037 16.4759L1.0426 13.8421ZM11.3998 9.75387L7.87317 6.32286C7.22327 5.69101 6.35852 5.34276 5.43958 5.34276H4.74719L9.19739 1.01396C10.5873 -0.337987 12.8409 -0.337987 14.2306 1.01396L18.694 5.35525H18.2706C17.3514 5.35525 16.4869 5.70336 15.837 6.33538L12.3231 9.75357C12.1959 9.87774 12.0289 9.9396 11.8617 9.93959C11.6942 9.93959 11.527 9.87753 11.3998 9.75387Z" fill="#303030"/>
</svg>
