<svg width="39" height="30" viewBox="0 0 39 30" fill="none" xmlns="http://www.w3.org/2000/svg">
<g clip-path="url(#clip0_40487_94)">
<path d="M33.6833 10.0525H31.4573V8.90433C31.4573 7.99049 30.7075 7.24067 29.7936 7.24067C28.8798 7.24067 28.13 7.99049 28.13 8.90433V10.0525H25.9039V8.90433C25.9039 6.7486 27.6613 5.01465 29.7936 5.01465C31.9493 5.01465 33.6833 6.77204 33.6833 8.90433V10.0525Z" fill="#FFA400"/>
<path d="M34.5969 10.0527H24.9899C24.5681 10.0527 24.2401 10.3808 24.2401 10.8026V17.9024C24.2401 18.3242 24.5681 18.6522 24.9899 18.6522H34.5969C35.0187 18.6522 35.3467 18.3242 35.3467 17.9024V10.8026C35.3233 10.3808 34.9953 10.0527 34.5969 10.0527ZM30.262 14.7157V15.6764C30.262 15.9341 30.0511 16.1684 29.77 16.1684C29.5122 16.1684 29.2779 15.9576 29.2779 15.6764V14.7157C28.9733 14.5516 28.7858 14.2236 28.7858 13.8487C28.7858 13.3098 29.231 12.8646 29.77 12.8646C30.3089 12.8646 30.7541 13.3098 30.7541 13.8487C30.7775 14.2236 30.5666 14.5516 30.262 14.7157Z" fill="#003A70"/>
<path d="M24.0059 8.99772H21.6862C21.3113 8.99772 21.0067 8.6931 21.0067 8.3182C21.0067 7.94329 21.3113 7.63867 21.6862 7.63867H24.0059C24.3808 7.63867 24.6855 7.94329 24.6855 8.3182C24.6855 8.6931 24.3808 8.99772 24.0059 8.99772Z" fill="#FFA400"/>
<path d="M25.6463 5.34273C25.5058 5.34273 25.3417 5.29587 25.2246 5.17871L23.3969 3.67907C23.1157 3.44475 23.0688 3.02298 23.3032 2.71837C23.5375 2.43718 23.9593 2.39032 24.2639 2.62464L26.0916 4.12428C26.3727 4.35859 26.4196 4.78037 26.1853 5.08498C26.0213 5.249 25.8338 5.34273 25.6463 5.34273Z" fill="#FFA400"/>
<path d="M29.7936 3.7491C29.4187 3.7491 29.1141 3.44449 29.1141 3.06958V0.726398C29.1141 0.351489 29.4187 0.046875 29.7936 0.046875C30.1685 0.046875 30.4731 0.351489 30.4731 0.726398V3.06958C30.4731 3.44449 30.1685 3.7491 29.7936 3.7491Z" fill="#FFA400"/>
<path d="M33.9173 5.34273C33.7298 5.34273 33.519 5.249 33.4018 5.08498C33.1675 4.8038 33.2143 4.35859 33.4955 4.12428L35.3232 2.62464C35.6044 2.39032 36.0496 2.43718 36.2839 2.71837C36.5182 2.99955 36.4714 3.44475 36.1902 3.67907L34.3625 5.17871C34.2219 5.29587 34.0813 5.34273 33.9173 5.34273Z" fill="#FFA400"/>
<path d="M37.878 8.99772H35.5348C35.1599 8.99772 34.8553 8.6931 34.8553 8.3182C34.8553 7.94329 35.1599 7.63867 35.5348 7.63867H37.878C38.2529 7.63867 38.5575 7.94329 38.5575 8.3182C38.5575 8.6931 38.2529 8.99772 37.878 8.99772Z" fill="#FFA400"/>
<path d="M0.0585938 18.5577V10.9892H1.88628V16.9643H4.81526V18.5577H0.0585938ZM10.8607 15.9568V16.1677V16.3785H6.99442C7.01785 16.5191 7.06471 16.6597 7.13501 16.7769C7.2053 16.894 7.29903 17.0112 7.41619 17.0815C7.53335 17.1752 7.67394 17.2455 7.81453 17.2924C7.95512 17.3393 8.11914 17.3627 8.25974 17.3627C8.54092 17.3627 8.77524 17.3158 8.96269 17.1987C9.15015 17.1049 9.31417 16.9643 9.43133 16.8003L10.6498 17.5736C10.392 17.9485 10.064 18.2062 9.66565 18.4171C9.26731 18.6046 8.77524 18.7217 8.2363 18.7217C7.83796 18.7217 7.46305 18.6514 7.11158 18.5343C6.7601 18.4171 6.45548 18.2297 6.1743 17.9953C5.91655 17.761 5.70567 17.4564 5.54164 17.1049C5.37762 16.7535 5.30732 16.3551 5.30732 15.9099C5.30732 15.4647 5.37762 15.0898 5.54164 14.7383C5.68223 14.3868 5.89312 14.0822 6.15087 13.8479C6.40862 13.6136 6.71323 13.4027 7.06471 13.2855C7.41619 13.145 7.7911 13.0747 8.18944 13.0747C8.58778 13.0747 8.93926 13.145 9.2673 13.2621C9.59535 13.4027 9.87653 13.5902 10.1109 13.8245C10.3452 14.0822 10.5326 14.3868 10.6498 14.7383C10.7904 15.1132 10.8607 15.5116 10.8607 15.9568ZM9.24387 15.3007C9.24387 15.0195 9.15015 14.7852 8.98612 14.5743C8.8221 14.3634 8.54092 14.2697 8.18944 14.2697C8.02542 14.2697 7.86139 14.2931 7.7208 14.34C7.58021 14.3868 7.46305 14.4571 7.34589 14.5509C7.22874 14.6446 7.15844 14.7617 7.08814 14.8789C7.01785 14.9961 6.99442 15.1367 6.97098 15.2773H9.24387V15.3007ZM13.6725 14.5509V16.5894C13.6725 16.8472 13.7194 17.0346 13.8131 17.1518C13.9068 17.269 14.0708 17.3393 14.3286 17.3393C14.4223 17.3393 14.516 17.3393 14.6098 17.3158C14.7035 17.2924 14.7972 17.269 14.8441 17.2455L14.8675 18.5343C14.7504 18.5811 14.5863 18.6046 14.3989 18.6514C14.2114 18.6749 14.024 18.6983 13.8365 18.6983C13.485 18.6983 13.1804 18.6514 12.9461 18.5577C12.7118 18.464 12.5009 18.3468 12.3603 18.1828C12.2197 18.0188 12.1026 17.8079 12.0557 17.5736C12.0088 17.3393 11.962 17.0815 11.962 16.8003V14.5509H11.095V13.2387H11.9385V11.8328H13.6725V13.2387H14.9144V14.5509H13.6725ZM16.5312 10.8486C16.0157 10.8486 15.5939 11.2235 15.5939 11.7156C15.5939 12.2311 15.9454 12.5592 16.4609 12.5592C16.5077 12.5592 16.5546 12.5592 16.578 12.5357C16.4843 12.9106 16.1328 13.1918 15.7814 13.2387H15.7111V14.0588H15.8048C16.2266 14.0119 16.6249 13.8245 16.9295 13.5433C17.3279 13.1684 17.5387 12.606 17.5387 11.9499C17.5387 11.3173 17.117 10.8486 16.5312 10.8486ZM20.5849 14.8086C20.4443 14.668 20.2803 14.5509 20.0928 14.4571C19.9054 14.3634 19.6945 14.3165 19.4836 14.3165C19.3196 14.3165 19.179 14.34 19.0384 14.4103C18.8978 14.4806 18.8275 14.5743 18.8275 14.7383C18.8275 14.8789 18.8978 14.9961 19.0618 15.0664C19.2258 15.1367 19.4602 15.207 19.8116 15.2773C20.0225 15.3241 20.21 15.371 20.4209 15.4647C20.6317 15.5584 20.7958 15.6522 20.9598 15.7693C21.1238 15.8865 21.2644 16.0505 21.3581 16.238C21.4519 16.4254 21.4987 16.6363 21.4987 16.894C21.4987 17.2221 21.4284 17.5033 21.2878 17.7376C21.1472 17.9719 20.9832 18.1594 20.7489 18.3C20.538 18.4405 20.2803 18.5343 20.0225 18.6046C19.7413 18.6749 19.4836 18.6983 19.2024 18.6983C18.7572 18.6983 18.3354 18.628 17.9371 18.4874C17.5153 18.3468 17.1638 18.1359 16.9061 17.8782L17.8902 16.8472C18.0542 17.0112 18.2417 17.1518 18.476 17.269C18.7103 17.3861 18.9447 17.433 19.2024 17.433C19.343 17.433 19.4836 17.4095 19.6242 17.3393C19.7648 17.269 19.8351 17.1518 19.8351 16.9878C19.8351 16.8238 19.7413 16.7066 19.5773 16.6129C19.4133 16.5426 19.1321 16.4488 18.7806 16.3785C18.5932 16.3317 18.4057 16.2848 18.2183 16.2145C18.0308 16.1442 17.8668 16.0505 17.7262 15.9333C17.5856 15.8162 17.4684 15.6522 17.3747 15.4881C17.281 15.3007 17.2341 15.0898 17.2341 14.8555C17.2341 14.5274 17.3044 14.2697 17.445 14.0354C17.5856 13.801 17.7496 13.637 17.9605 13.4964C18.1714 13.3558 18.4057 13.2387 18.6635 13.1918C18.9212 13.1215 19.179 13.0981 19.4367 13.0981C19.8351 13.0981 20.2334 13.1684 20.6083 13.2855C20.9832 13.4027 21.3113 13.5902 21.569 13.8479L20.5849 14.8086ZM0.0585938 27.3212V19.7527H5.1433V21.2992H1.81598V22.7286H4.95585V24.1813H1.81598V25.7513H5.33076V27.3212H0.0585938ZM9.94683 27.3212V24.4157C9.94683 24.2751 9.9234 24.1345 9.89996 23.9939C9.87653 23.8533 9.82967 23.7361 9.78281 23.6424C9.73594 23.5487 9.64221 23.455 9.54849 23.4081C9.45476 23.3378 9.31417 23.3144 9.15015 23.3144C8.98612 23.3144 8.84553 23.3378 8.72837 23.4081C8.61121 23.4784 8.51749 23.5487 8.42376 23.6658C8.35346 23.783 8.28317 23.9002 8.2363 24.0408C8.18944 24.1813 8.16601 24.3219 8.16601 24.4625V27.3446H6.40862V22.0256H8.09571V22.752H8.11914C8.18944 22.6348 8.25974 22.5177 8.37689 22.424C8.47062 22.3068 8.61121 22.2131 8.72837 22.1428C8.86896 22.0725 9.00955 22.0022 9.17358 21.9553C9.3376 21.9085 9.50162 21.885 9.68908 21.885C10.0406 21.885 10.3452 21.9553 10.6029 22.0725C10.8607 22.1896 11.0481 22.3771 11.2121 22.5646C11.3762 22.7754 11.4699 23.0098 11.5402 23.2675C11.6105 23.5253 11.6339 23.783 11.6339 24.0642V27.3446H9.94683V27.3212ZM16.2266 23.7127C16.1328 23.5956 15.9922 23.4784 15.8282 23.4081C15.6642 23.3378 15.4767 23.2909 15.3127 23.2909C15.1253 23.2909 14.9612 23.3378 14.8206 23.4081C14.6801 23.4784 14.5395 23.5721 14.4457 23.7127C14.352 23.8533 14.2583 23.9705 14.188 24.1345C14.1177 24.2985 14.0943 24.4625 14.0943 24.65C14.0943 24.8374 14.1177 25.0015 14.188 25.1655C14.2349 25.3295 14.3286 25.4701 14.4457 25.5873C14.5629 25.7044 14.6801 25.8216 14.8441 25.8919C15.0081 25.9622 15.1721 26.009 15.3596 26.009C15.547 26.009 15.7111 25.9856 15.8985 25.9153C16.0625 25.845 16.2031 25.7513 16.3203 25.6107L17.281 26.8057C17.0701 27.0166 16.7655 27.1806 16.4374 27.2978C16.086 27.4149 15.7111 27.4852 15.3362 27.4852C14.9144 27.4852 14.516 27.4149 14.1646 27.2978C13.7896 27.1806 13.485 26.9932 13.2039 26.7354C12.9461 26.5011 12.7352 26.1965 12.5712 25.845C12.4072 25.4935 12.3369 25.0952 12.3369 24.65C12.3369 24.2048 12.4072 23.8299 12.5712 23.4784C12.7352 23.1269 12.9461 22.8223 13.2039 22.588C13.4616 22.3537 13.7896 22.1428 14.1646 22.0256C14.5395 21.885 14.9144 21.8382 15.3362 21.8382C15.5236 21.8382 15.7111 21.8616 15.8985 21.885C16.086 21.9319 16.2734 21.9788 16.4374 22.0256C16.6015 22.0959 16.7655 22.1662 16.9295 22.2599C17.0701 22.3537 17.2107 22.4474 17.3044 22.5646L16.2266 23.7127ZM21.3347 23.455C21.2644 23.4315 21.1707 23.4081 21.1004 23.4081H20.8895C20.6552 23.4081 20.4677 23.455 20.3037 23.5253C20.1397 23.619 20.0225 23.7127 19.9288 23.8299C19.8351 23.947 19.7648 24.0876 19.7179 24.2282C19.671 24.3688 19.6476 24.486 19.6476 24.6031V27.3212H17.8902V22.0022H19.5773V22.7754H19.6007C19.7413 22.4943 19.9288 22.2834 20.1865 22.1193C20.4443 21.9553 20.7255 21.8616 21.0535 21.8616H21.2644C21.3347 21.8616 21.3816 21.885 21.4284 21.885L21.3347 23.455ZM25.4587 28.1179C25.3415 28.3991 25.2244 28.6334 25.1072 28.8677C24.9666 29.0786 24.826 29.2661 24.6386 29.4301C24.4511 29.5941 24.2402 29.6878 24.0059 29.7816C23.7716 29.8519 23.467 29.8987 23.139 29.8987C22.9749 29.8987 22.8109 29.8987 22.6235 29.8753C22.4594 29.8519 22.2954 29.8284 22.1782 29.7816L22.3657 28.3054C22.4594 28.3288 22.5532 28.3522 22.6469 28.3756C22.7406 28.3991 22.8343 28.3991 22.9281 28.3991C23.2092 28.3991 23.3967 28.3288 23.5139 28.2116C23.631 28.0945 23.7482 27.907 23.8185 27.6727L23.9825 27.2275L21.7565 22.0022H23.7013L24.8963 25.4232H24.9198L25.9742 22.0022H27.8253L25.4587 28.1179ZM34.2222 24.65C34.2222 25.0249 34.1753 25.3764 34.0582 25.7278C33.941 26.0793 33.777 26.3605 33.5661 26.6417C33.3552 26.8994 33.074 27.1103 32.7694 27.2743C32.4648 27.4384 32.0899 27.5087 31.6916 27.5087C31.3635 27.5087 31.0589 27.4384 30.7543 27.3212C30.4731 27.1806 30.2388 27.0166 30.0748 26.7823H30.0513V29.9456H28.294V22.0725H29.9576V22.7286H29.981C30.1451 22.5177 30.3794 22.3302 30.6606 22.1662C30.9418 22.0022 31.2932 21.9319 31.6916 21.9319C32.0665 21.9319 32.418 22.0022 32.746 22.1662C33.0506 22.3068 33.3318 22.5177 33.5427 22.7754C33.7536 23.0332 33.9176 23.3378 34.0348 23.6658C34.1519 23.9236 34.2222 24.2751 34.2222 24.65ZM32.5117 24.65C32.5117 24.486 32.4883 24.3219 32.4414 24.1579C32.3945 23.9939 32.3008 23.8533 32.2071 23.7361C32.1133 23.619 31.9728 23.5018 31.8087 23.4315C31.6447 23.3612 31.4807 23.3144 31.2698 23.3144C31.0589 23.3144 30.8949 23.3612 30.7309 23.4315C30.5668 23.5018 30.4497 23.619 30.3325 23.7361C30.2154 23.8533 30.1451 24.0173 30.0748 24.1813C30.0045 24.3454 29.981 24.5094 29.981 24.6734C29.981 24.8374 30.0045 25.0015 30.0748 25.1655C30.1451 25.3295 30.2154 25.4701 30.3325 25.6107C30.4497 25.7278 30.5668 25.845 30.7309 25.9153C30.8949 25.9856 31.0589 26.0325 31.2698 26.0325C31.4807 26.0325 31.6681 25.9856 31.8087 25.9153C31.9728 25.845 32.0899 25.7278 32.2071 25.6107C32.3008 25.4935 32.3945 25.3295 32.4414 25.1655C32.4883 24.978 32.5117 24.814 32.5117 24.65ZM37.0106 23.3144V25.3529C37.0106 25.6107 37.0575 25.7981 37.1512 25.9153C37.2449 26.0325 37.4089 26.1028 37.6667 26.1028C37.7604 26.1028 37.8541 26.1028 37.9479 26.0793C38.0416 26.0559 38.1353 26.0325 38.1822 26.009L38.2056 27.2978C38.0885 27.3446 37.9244 27.3681 37.737 27.4149C37.5495 27.4384 37.3621 27.4618 37.1746 27.4618C36.8231 27.4618 36.5185 27.4149 36.2842 27.3212C36.0499 27.2275 35.839 27.1103 35.6984 26.9463C35.5578 26.7823 35.4407 26.5714 35.3938 26.3371C35.3469 26.1028 35.3001 25.845 35.3001 25.5638V23.3144H34.4565V22.0022H35.3001V20.5963H37.0106V22.0022H38.2525V23.3144H37.0106Z" fill="#003A70"/>
</g>
<defs>
<clipPath id="clip0_40487_94">
<rect width="38.593" height="30" fill="white"/>
</clipPath>
</defs>
</svg>
