<svg width="34" height="10" viewBox="0 0 34 10" fill="none" xmlns="http://www.w3.org/2000/svg">
<path d="M24.3446 0.40824C23.8056 0.212773 22.9599 0 21.9133 0C19.2371 0 17.3458 1.31533 17.3343 3.19772C17.3123 4.58126 18.675 5.36109 19.7049 5.82736C20.7631 6.30483 21.1168 6.6021 21.1116 7.02562C21.1064 7.67819 20.2659 7.96936 19.4925 7.96936C18.4176 7.96936 17.8346 7.82683 16.9355 7.46033L16.6017 7.3066L16.2207 9.48118C16.8748 9.74078 18.0471 9.96882 19.257 9.9902C22.108 9.9902 23.9668 8.68607 23.9877 6.67541C24.0097 5.57285 23.2802 4.736 21.726 4.04576C20.7882 3.60087 20.201 3.29749 20.201 2.8414C20.201 2.43825 20.7024 2.01473 21.749 2.01473C22.648 1.99845 23.2813 2.18984 23.7763 2.38022L24.0327 2.49119L24.4085 0.397042L24.3446 0.40824ZM31.3016 0.180196H29.2083C28.5542 0.180196 28.0685 0.350212 27.7797 0.981407L23.7564 9.85175H26.6022L27.1758 8.39898L30.6474 8.40407C30.7343 8.74308 30.9792 9.85073 30.9792 9.85073H33.4922L31.3016 0.180196ZM13.4806 0.100787H16.1903L14.4948 9.77641H11.7851L13.4806 0.0956962V0.100787ZM6.59064 5.4293L6.86799 6.77619L9.52225 0.180196H12.3952L8.12081 9.83546H5.26037L2.91591 1.65943C2.86672 1.51691 2.80706 1.42019 2.65949 1.33671C1.86928 0.933559 0.980693 0.604727 0 0.376682L0.0324456 0.174087H4.40422C4.99348 0.195467 5.47283 0.376682 5.63611 0.991588L6.59063 5.4344L6.59064 5.4293ZM27.9482 6.42089L29.0335 3.71184C29.0168 3.73729 29.2565 3.15496 29.3925 2.78846L29.5778 3.62021L30.2058 6.41479H27.9482V6.42089Z" fill="#303030"/>
</svg>
