<svg width="26" height="26" viewBox="0 0 26 26" fill="none" xmlns="http://www.w3.org/2000/svg">
<path d="M3.72502 20.3651C3.36574 20.2223 3.045 19.9972 2.78863 19.7079C2.53226 19.4185 2.34743 19.073 2.24902 18.6991C1.81592 16.754 1.62249 14.7632 1.67302 12.7711C1.62278 10.7814 1.81588 8.79297 2.24802 6.8501C2.3445 6.47679 2.52722 6.13132 2.78148 5.84145C3.03574 5.55158 3.35446 5.32541 3.71202 5.1811C7.09902 3.8871 12.446 3.8501 13.045 3.8501H13.083C13.711 3.8501 19.058 3.8871 22.433 5.1761C22.7921 5.31904 23.1126 5.54425 23.3687 5.8336C23.6249 6.12295 23.8096 6.46837 23.908 6.8421C24.3411 8.78721 24.5345 10.778 24.484 12.7701C24.5345 14.7612 24.3414 16.7509 23.909 18.6951C23.8119 19.0676 23.6289 19.4123 23.3747 19.7014C23.1205 19.9905 22.8021 20.2161 22.445 20.3601C19.058 21.6541 13.711 21.6911 13.112 21.6911C12.447 21.6921 7.09902 21.6501 3.72502 20.3651ZM4.30602 6.6991C4.1886 6.74801 4.08413 6.8235 4.00084 6.91963C3.91755 7.01576 3.85771 7.12991 3.82602 7.2531C3.42804 9.06435 3.25208 10.9173 3.30202 12.7711C3.25206 14.6259 3.42836 16.4799 3.82702 18.2921C3.85949 18.417 3.92084 18.5326 4.00612 18.6295C4.09139 18.7264 4.19822 18.802 4.31802 18.8501C7.46101 20.0501 12.818 20.0651 13.045 20.0651C13.338 20.0651 18.696 20.0511 21.851 18.8461C21.9684 18.7972 22.0729 18.7217 22.1562 18.6256C22.2395 18.5294 22.2993 18.4153 22.331 18.2921C22.7291 16.4805 22.905 14.6272 22.855 12.7731C22.9051 10.9176 22.7288 9.06292 22.33 7.2501C22.297 7.12574 22.2355 7.0108 22.1502 6.91445C22.065 6.81809 21.9584 6.74298 21.839 6.6951C18.696 5.4951 13.339 5.4801 13.112 5.4801H13.045C12.819 5.4791 7.46101 5.4931 4.30602 6.6991ZM11.065 16.7501C10.9351 16.6805 10.8265 16.5769 10.7508 16.4505C10.6751 16.3241 10.6351 16.1795 10.635 16.0321V9.5121C10.6348 9.36463 10.6747 9.21988 10.7504 9.09331C10.8261 8.96674 10.9347 8.86312 11.0647 8.79349C11.1947 8.72387 11.3412 8.69088 11.4885 8.69803C11.6358 8.70518 11.7784 8.75221 11.901 8.8341L16.789 12.0931C16.9006 12.1674 16.9921 12.2681 17.0554 12.3863C17.1187 12.5045 17.1518 12.6365 17.1518 12.7706C17.1518 12.9047 17.1187 13.0367 17.0554 13.1549C16.9921 13.2731 16.9006 13.3738 16.789 13.4481L11.901 16.7071C11.7783 16.7887 11.6358 16.8356 11.4885 16.8426C11.3413 16.8497 11.195 16.8166 11.065 16.7471V16.7501ZM12.265 14.5101L14.865 12.7731L12.265 11.0371V14.5101Z" fill="#005CFF"/>
</svg>
